<?xml version="1.0" encoding="UTF-8"?>
<!DOCTYPE svg PUBLIC "-//W3C//DTD SVG 1.1//EN" "http://www.w3.org/Graphics/SVG/1.1/DTD/svg11.dtd">
<!-- Creator: CorelDRAW 2020 (64-Bit) -->
<svg xmlns="http://www.w3.org/2000/svg" xml:space="preserve" width="31.8743mm" height="27.3672mm" version="1.1" style="shape-rendering:geometricPrecision; text-rendering:geometricPrecision; image-rendering:optimizeQuality; fill-rule:evenodd; clip-rule:evenodd"
viewBox="0 0 3660.89 3143.23"
 xmlns:xlink="http://www.w3.org/1999/xlink"
 xmlns:xodm="http://www.corel.com/coreldraw/odm/2003">
 <defs>
  <style type="text/css">
   <![CDATA[
    .fil0 {fill:#00AFAA}
   ]]>
  </style>
 </defs>
 <g id="Слой_x0020_1">
  <metadata id="CorelCorpID_0Corel-Layer"/>
  <path class="fil0" d="M1952.47 1198.67c0.01,73.56 60.7,133.21 135.57,133.21 67.34,0 123.08,-48.27 133.64,-111.48 -16.5,15.24 -38.66,24.67 -63.1,24.67l0 0c-50.9,-0.01 -92.17,-40.54 -92.17,-90.55l0 0c0,-38.13 24.04,-70.68 57.99,-84.03l0 0c-11.57,-3.17 -23.74,-5 -36.35,-5l0 0c-74.87,0 -135.59,59.64 -135.59,133.17l0 0zm-1789.77 386.4l0 29.66 24.13 0 0 0c32.43,0 58.31,25.68 58.31,57.36l0 0c0,17.19 -7.59,32.52 -19.63,42.98l0 0c12.06,10.51 19.63,25.89 19.63,43l0 0c0,17.19 -7.58,32.52 -19.61,42.98l0 0c12.05,10.5 19.61,25.88 19.61,42.97l0 0c0,31.88 -26.11,57.35 -58.31,57.35l-78.36 0 0 81.33c0,287.86 241.14,521.23 538.56,521.23l0 0c99.79,0 195.62,-26.42 278.73,-75.16 14.33,58.4 68.02,101.81 131.83,101.81 9.29,0 18.35,-0.92 27.12,-2.66l0 615.33 623.69 0 0.01 0 623.71 0 0 -639.27c22.66,16.69 50.82,26.6 81.35,26.6 65.71,0 120.71,-46.03 133.02,-107.09 82.84,47.87 178.22,73.79 277.51,73.79l0 0c297.46,0 538.57,-231.29 538.57,-516.6l0 0 0 -58.24 82.83 20.54c28.56,7.08 57.62,-10.39 64.81,-39.07l0 0 16.52 -65.89 25.73 0c30.14,0 54.18,-23.86 54.18,-53.29l0 0c0,-9.73 -2.62,-18.8 -7.2,-26.63l0 0 7.26 0c30.14,0 54.18,-23.84 54.18,-53.27l0 0c0,-15.99 -7.05,-30.23 -18.26,-39.95l0 0c11.22,-9.76 18.26,-24.06 18.26,-39.97l0 0c0,-29.62 -24.26,-53.27 -54.18,-53.27l0 0 -13.17 0 65.73 -262.2c7.19,-28.67 -10.18,-57.65 -38.79,-64.75l0 0 -286.48 -71.03c-4.3,-1.07 -8.59,-1.58 -12.84,-1.58l0 0c-23.97,0 -45.86,16.27 -51.96,40.65l0 0 -73.94 294.95c-10.3,-26.09 -35.86,-42.58 -63.23,-42.58l0 0c-6.9,0 -13.92,1.06 -20.85,3.25l0 0c-35.54,11.36 -55.12,49.02 -43.56,84.11l0 0 66.1 200.67 -13.55 54.07c-7.19,28.68 10.18,57.67 38.79,64.77l0 0 12.61 3.12 0 105.61c0,184.12 -155.58,333.38 -347.55,333.38l0 0c-76.25,0 -148.54,-23.52 -208.21,-66.42l0 0c-25.16,-18.09 -47.61,-39.33 -66.73,-63.01l0 -27.2c0,-73.41 -60.72,-132.97 -135.6,-132.97l0 0c-55.54,0 -103.4,32.89 -124.33,79.92l-580.74 0 -0.01 0 -526.48 0c-20.93,-47.02 -68.79,-79.92 -124.33,-79.92l0 0c-74.88,0 -135.59,59.55 -135.59,132.97l0 31.02c-19.13,23.9 -41.57,45.32 -66.73,63.59l0 0c-59.68,43.29 -131.98,67.03 -208.24,67.03l0 0c-191.93,0 -347.55,-150.61 -347.55,-336.37l0 0 0 -156.67c0,-54.65 0,-54.65 -1.18,-67.95l0 0 0 -172.99c0,-36.86 -30.1,-66.74 -67.8,-66.74l0 0c-37.43,0 -67.8,29.55 -67.8,66.74l0 0zm3199.88 179.98l-28.75 -6.98 -60.84 -14.77 -34.04 -8.26c-27.58,-6.7 -44.33,-33.95 -37.58,-60.39l21.44 -83.71 84 -327.97 0 0c5.78,-22.59 26.76,-37.65 49.77,-37.65l0 0c4.15,0 8.34,0.49 12.53,1.5l198.46 48.17 0 0c27.59,6.7 44.36,33.95 37.57,60.37l-60.51 236.24 -46.5 0c-30.15,0 -54.19,23.86 -54.19,53.27l0 0c0,15.99 7.05,30.24 18.26,39.96l0 0c-11.23,9.76 -18.26,24.05 -18.26,39.96l0 0c0,9.73 2.62,18.81 7.19,26.65l0 0 -7.24 0c-25.66,0 -46.91,17.27 -52.66,40.55l-28.66 -6.95zm-123.63 -30.01l0 0zm-1801.72 529.14l542.35 0 0 719.22 -542.35 0 0 -719.22zm-1383.05 -639.3c-29.93,0 -54.19,23.66 -54.19,53.29l0 0c0,15.91 7.03,30.18 18.26,39.96l0 0c-11.21,9.72 -18.26,23.96 -18.26,39.93l0 0c0,15.9 7.02,30.17 18.24,39.95l0 0c-11.2,9.72 -18.24,23.94 -18.24,39.91l0 0c0,29.43 24.04,53.28 54.19,53.28l0 0 108.57 0c29.92,0 54.18,-23.66 54.18,-53.28l0 0c0,-15.88 -7.02,-30.17 -18.22,-39.92l0 0c11.18,-9.73 18.22,-23.96 18.22,-39.93l0 0c0,-15.91 -7.03,-30.2 -18.24,-39.96l0 0c11.19,-9.72 18.24,-23.96 18.24,-39.93l0 0c0,-29.43 -24.04,-53.29 -54.18,-53.29l0 0 -108.57 0zm1952.52 446.24l0 -79.9 -596.6 0 0 79.9 596.6 0zm-840.64 -673.09l0 466.61 298.28 0 0 79.89 488.13 0 0 -79.89 298.3 0 0 -487.29c49.93,-43.9 81.35,-107.68 81.35,-178.67l0 0c0,-96.48 -58.02,-179.63 -141.67,-217.66 -65.82,-125.04 -180.55,-221.2 -319.33,-264.04l0 -130.97 -108.48 0 0 -79.9 189.83 0 0 -250.85c47.83,-20.57 81.35,-67.49 81.35,-122.08l0 0c0,-73.4 -60.71,-133.18 -135.59,-133.18l0 0c-74.74,0 -135.6,59.63 -135.6,133.18l0 0c0,43.5 21.31,82.22 54.25,106.54l0 133.21 -81.36 0 -108.47 0 0 213.09 -108.48 0 0 140.11c-122.03,44.8 -223.22,131.55 -285.41,242.4 -101.46,29.08 -175.58,121.11 -175.58,230.16l0 0c0,83.12 43.07,156.35 108.48,199.35zm732.17 -199.35c0,102.99 84.98,186.47 189.82,186.47l0 0c104.85,0 189.83,-83.48 189.83,-186.47l0 0c0,-102.97 -84.98,-186.45 -189.83,-186.45l0 0c-104.84,0 -189.82,83.49 -189.82,186.45l0 0zm-786.41 0c0,102.99 84.98,186.47 189.82,186.47l0 0c104.84,0 189.82,-83.48 189.82,-186.47l0 0c0,-102.97 -84.98,-186.45 -189.82,-186.45l0 0c-104.84,0 -189.82,83.49 -189.82,186.45l0 0zm671.67 306.34c0,34.57 -43.87,66.59 -102.21,66.59l0 0c-58.33,0 -102.21,-32.02 -102.21,-66.59l0 0c0,-22.06 -19.61,-39.96 -43.81,-39.96l0 0c-24.2,0 -43.81,17.89 -43.81,39.96l0 0c0,83.12 86.88,146.5 189.82,146.5l0 0c102.96,0 189.83,-63.38 189.83,-146.5l0 0c0,-22.06 -19.63,-39.96 -43.81,-39.96l0 0c-24.19,0 -43.82,17.89 -43.82,39.96l0 0zm-617.42 -306.34c0,73.55 60.7,133.2 135.56,133.2 67.34,0 123.05,-48.27 133.63,-111.48 -16.49,15.24 -38.66,24.67 -63.1,24.67l0 0c-50.9,0 -92.17,-40.54 -92.17,-90.55l0 0c0,-38.13 24.03,-70.68 57.99,-84.03l0 0c-11.58,-3.17 -23.74,-5 -36.34,-5l0 0c-74.87,0 -135.59,59.64 -135.57,133.18l0 0z"/>
 </g>
</svg>
